#N canvas 0 22 450 300 12;
#X obj 186 85 random 200;
#X obj 186 109 + 100;
#X floatatom 186 135 5 0 0 0 - - -;
#X obj 185 159 t f f f;
#X obj 224 182 expr int($f1/100);
#X floatatom 225 204 5 0 0 0 - - -;
#X floatatom 203 315 5 0 0 0 - - -;
#X obj 225 229 * 100;
#X obj 203 290 expr int(($f1-$f2)/10);
#X floatatom 74 420 5 0 0 0 - - -;
#X obj 225 256 t f f;
#X obj 74 395 expr ($f1-$f2);
#X obj 202 338 * 10;
#X obj 202 363 expr $f1+$f2;
#X obj 186 50 bng 30 250 50 0 empty empty empty 17 7 0 10 -262144 -1
-1;
#X obj 74 446 pack f f f;
#X msg 74 478 \$3 \$2 \$1;
#X obj 3 504 print open;
#X obj 74 505 unpack f f f;
#X obj 74 534 expr $f1*100;
#X obj 108 559 expr $f1*10;
#X floatatom 147 583 5 0 0 0 - - -;
#X obj 74 618 expr $f1+$f2+$f3;
#X obj 74 649 print close;
#X text 267 205 <---fist number;
#X text 239 316 <-----second number;
#X text 130 419 <-----third number;
#X text 238 50 <---random 100-300 number;
#X text 225 134 (decompose);
#X text 160 501 [combine];
#X connect 0 0 1 0;
#X connect 1 0 2 0;
#X connect 2 0 3 0;
#X connect 3 0 11 0;
#X connect 3 1 8 0;
#X connect 3 2 4 0;
#X connect 4 0 5 0;
#X connect 5 0 7 0;
#X connect 5 0 15 2;
#X connect 6 0 12 0;
#X connect 6 0 15 1;
#X connect 7 0 10 0;
#X connect 8 0 6 0;
#X connect 9 0 15 0;
#X connect 10 0 13 1;
#X connect 10 1 8 1;
#X connect 11 0 9 0;
#X connect 12 0 13 0;
#X connect 13 0 11 1;
#X connect 14 0 0 0;
#X connect 15 0 16 0;
#X connect 16 0 17 0;
#X connect 16 0 18 0;
#X connect 18 0 19 0;
#X connect 18 1 20 0;
#X connect 18 2 21 0;
#X connect 19 0 22 0;
#X connect 20 0 22 1;
#X connect 21 0 22 2;
#X connect 22 0 23 0;
